<svg xmlns="http://www.w3.org/2000/svg" viewBox="0 0 48 48"><path fill="#1e88e5" d="M7.75,36h32.5c2.071,0,3.75-1.679,3.75-3.75v-21.5C44,8.679,42.321,7,40.25,7H7.75	C5.679,7,4,8.679,4,10.75v21.5C4,34.321,5.679,36,7.75,36z"/><path fill="#90caf9" d="M30,23c-0.553,0-1-0.448-1-1c0-2.757-2.243-5-5-5s-5,2.243-5,5c0,0.552-0.448,1-1,1s-1-0.448-1-1	c0-3.86,3.14-7,7-7c3.859,0,7,3.14,7,7C31,22.552,30.553,23,30,23z"/><path fill="#90caf9" d="M33.9,24.425c-0.047,0-0.095-0.003-0.143-0.01c-0.547-0.078-0.927-0.584-0.849-1.131	C32.97,22.862,33,22.431,33,22c0-4.962-4.037-9-9-9c-4.962,0-9,4.038-9,9c0,0.389,0.025,0.781,0.075,1.166	c0.071,0.547-0.316,1.049-0.864,1.12c-0.543,0.07-1.049-0.316-1.12-0.864C13.031,22.953,13,22.475,13,22c0-6.065,4.935-11,11-11	s11,4.935,11,11c0,0.525-0.037,1.052-0.11,1.566C34.818,24.065,34.391,24.425,33.9,24.425z"/><path fill="#ffcc80" d="M36,29c-1.1,0-2,0.9-2,2v-1c0-1.1-0.9-2-2-2s-2,0.9-2,2v-1c0-1.1-0.9-2-2-2s-2,0.9-2,2v-7	c0-1.1-0.9-2-2-2s-2,0.9-2,2v8.4V31v4.7l-2.8-2.8c-0.8-0.8-2-0.8-2.8,0s-0.8,2,0,2.8l5.6,5.6c0,0,2.7,2.7,5,2.7h4.8	c3.3,0,6-2.5,6.2-5.8c0-0.1,0-0.1,0-0.2v-0.2v-5.4V31C38,29.9,37.1,29,36,29z"/></svg>